<svg class="svg" xmlns="http://www.w3.org/2000/svg" viewBox="-82 84 50 50" enable-background="new -82 84 50 50"><path d="M-44 87.8h-26c-4.5 0-8.2 3.7-8.2 8.2v26c0 4.5 3.7 8.2 8.2 8.2h26c4.5 0 8.2-3.7 8.2-8.2V96c0-4.6-3.6-8.2-8.2-8.2zm2.4 4.9h.9v7.2h-7.2v-7.2h6.3zm-21.5 11.9c1.4-1.9 3.6-3.1 6.1-3.1s4.7 1.2 6.1 3.1c.9 1.2 1.4 2.7 1.4 4.4 0 4.1-3.4 7.5-7.5 7.5s-7.5-3.4-7.5-7.5c0-1.6.5-3.1 1.4-4.4zm23.2 17.4c0 2.2-1.8 4.1-4.1 4.1h-26c-2.2 0-4.1-1.8-4.1-4.1v-17.4h6.3c-.5 1.3-.9 2.8-.9 4.4 0 6.4 5.2 11.6 11.6 11.6 6.4 0 11.6-5.2 11.6-11.6 0-1.5-.3-3-.9-4.4h6.3V122z"/></svg>