<svg class="svg" xmlns="http://www.w3.org/2000/svg" viewBox="-454 256 50 50" enable-background="new -454 256 50 50"><path d="M-406.4 260.3l-2-2c-3.1-3.1-8.2-3.1-11.3 0l-9.3 9.3c-2.8 2.8-3.1 7.1-.9 10.2l-1.9 1.9c-1.3-.9-2.9-1.4-4.5-1.4-2.1 0-4.2.8-5.7 2.3l-9.3 9.3c-1.5 1.5-2.3 3.5-2.3 5.7s.8 4.2 2.3 5.7l2 2c1.6 1.6 3.6 2.3 5.7 2.3s4.1-.8 5.7-2.3l9.3-9.3c1.5-1.5 2.3-3.5 2.3-5.7 0-2.1-.8-4.2-2.3-5.7l-.1-.1 1.7-1.7.1.1c1.5 1.5 3.5 2.3 5.7 2.3 2.1 0 4.2-.8 5.7-2.3l9.3-9.3c1.5-1.5 2.3-3.5 2.3-5.7-.1-2.1-1-4.1-2.5-5.6zm-25.3 25.3c.7.7 1.1 1.7 1.1 2.8 0 1-.4 2-1.1 2.8l-9.3 9.3c-1.5 1.5-4 1.5-5.5 0l-2-2c-.7-.7-1.1-1.7-1.1-2.8s.4-2 1.1-2.8l9.3-9.3c.7-.7 1.7-1.1 2.8-1.1.5 0 1 .1 1.5.3l-4.7 4.7c-.8.8-.8 2.1 0 2.9.4.4.9.6 1.5.6.5 0 1.1-.2 1.5-.6l4.9-4.9v.1zm22.4-16.9l-9.3 9.3c-1.5 1.5-4 1.5-5.5 0l-.1-.1 5-5c.8-.8.8-2.1 0-2.9-.8-.8-2.1-.8-2.9 0l-4.8 4.8c-.6-1.4-.3-3.1.8-4.3l9.3-9.3c.8-.8 1.8-1.1 2.8-1.1 1 0 2 .4 2.8 1.1l2 2c.7.7 1.1 1.7 1.1 2.8-.1 1-.5 2-1.2 2.7z"/></svg>
