<svg class="svg" xmlns="http://www.w3.org/2000/svg" viewBox="-35 1 50 50" enable-background="new -35 1 50 50"><path d="M11.4 41.7V20.2c-.6.7-1.2 1.3-1.9 1.8-5 3.8-8.9 7-11.9 9.4-.9.8-1.7 1.4-2.3 1.9-.6.4-1.4.9-2.4 1.4-1 .5-2 .7-2.9.7-.9 0-1.8-.2-2.9-.7-1-.5-1.8-.9-2.4-1.4-.6-.4-1.4-1.1-2.3-1.9-2.9-2.5-6.9-5.6-11.9-9.4-.7-.6-1.3-1.2-1.9-1.8v21.4c0 .2.1.5.3.6.2.2.4.3.6.3h41.1c.2 0 .5-.1.6-.3.1-.1.2-.3.2-.5zm0-29.3v-1.1c0-.2 0-.4-.1-.4l-.2-.2s-.1-.2-.2-.2-.2 0-.4-.1h-41.1c-.2 0-.5.1-.6.3-.2.2-.3.4-.3.6 0 3.1 1.4 5.8 4.1 7.9 3.6 2.8 7.3 5.8 11.2 8.8.1.1.4.4 1 .8s1 .8 1.3 1c.3.2.7.5 1.2.9.5.3 1 .6 1.4.8.4.2.8.3 1.2.2h.1c.4 0 .8-.1 1.2-.2.4-.2.9-.4 1.4-.8.5-.3.9-.6 1.2-.9.3-.2.7-.6 1.3-1s.9-.7 1-.8c3.9-3.1 7.6-6 11.2-8.8 1-.8 1.9-1.9 2.8-3.2.9-1.3 1.3-2.5 1.3-3.6zm3.6-1.1v30.4c0 1.2-.4 2.3-1.3 3.2-.9.9-1.9 1.3-3.2 1.3h-41.1c-1.2 0-2.3-.4-3.2-1.3-.9-.9-1.3-1.9-1.3-3.2V11.3c0-1.2.4-2.3 1.3-3.2.9-.9 1.9-1.3 3.2-1.3h41.1c1.2 0 2.3.4 3.2 1.3.9.9 1.3 2 1.3 3.2z"/></svg>