<svg class="svg" xmlns="http://www.w3.org/2000/svg" viewBox="-454 256 50 50" enable-background="new -454 256 50 50"><path d="M-429 256.2c-10.2 0-18.5 8.2-18.5 18.4 0 5 3.6 8.6 6.4 11.6 1.5 1.5 2.8 2.9 3.3 4.1.3.8.4 2.5.5 4.2.2 4.3.6 11.5 7.1 11.5h2.1c6.5 0 6.9-7.2 7.1-11.5.1-1.7.2-3.4.5-4.2.5-1.2 1.9-2.6 3.3-4.1 2.9-2.9 6.4-6.6 6.4-11.6.3-10.2-8-18.4-18.2-18.4zm1.1 45.6h-2.1c-1.8 0-2.5-1.4-2.8-4.5h7.7c-.4 3.1-1.1 4.5-2.8 4.5zm8-18.5c-1.7 1.8-3.4 3.5-4.2 5.3-.5 1.2-.7 2.8-.8 4.6h-8.3c-.1-1.8-.3-3.4-.8-4.6-.8-1.9-2.4-3.5-4.2-5.3-2.6-2.7-5.3-5.4-5.3-8.8 0-7.9 6.4-14.3 14.4-14.3s14.4 6.4 14.4 14.3c.1 3.4-2.6 6.1-5.2 8.8z"/></svg>
