<svg class="svg" xmlns="http://www.w3.org/2000/svg" viewBox="-41 1 50 50" enable-background="new -41 1 50 50"><path d="M-4.2 5.9C-7.5 2.6-11.4 1-16 1s-8.5 1.6-11.8 4.9-4.9 7.2-4.9 11.8c0 2.4.4 4.3 1.1 5.8l11.9 25.2c.3.7.8 1.3 1.5 1.7.7.4 1.4.6 2.2.6.8 0 1.5-.2 2.2-.6.7-.4 1.2-1 1.5-1.7L-.4 23.5C.3 22 .7 20 .7 17.7.7 13.1-1 9.1-4.2 5.9zm-5.9 17.7c-1.6 1.6-3.6 2.4-5.9 2.4s-4.3-.8-5.9-2.4-2.4-3.6-2.4-5.9c0-2.3.8-4.3 2.4-5.9s3.6-2.4 5.9-2.4 4.3.8 5.9 2.4 2.4 3.6 2.4 5.9c0 2.3-.8 4.2-2.4 5.9z"/></svg>