<svg xmlns="http://www.w3.org/2000/svg" viewBox="-29 1 50 50" enable-background="new -29 1 50 50"><path d="M10.6 1h-29.2c-3.5 0-6.2 2.8-6.2 6.2v37.5c0 3.5 2.8 6.2 6.2 6.2h29.2c3.5 0 6.3-2.8 6.3-6.2V7.2C16.8 3.8 14 1 10.6 1zm2.1 43.8c0 1.2-.9 2.1-2.1 2.1h-29.2c-1.2 0-2.1-.9-2.1-2.1V7.2c0-1.2.9-2.1 2.1-2.1h29.2c1.2 0 2.1.9 2.1 2.1v37.6zm-8.4-8.4h-16.7c-1.2 0-2.1.9-2.1 2.1s.9 2.1 2.1 2.1H4.3c1.2 0 2.1-.9 2.1-2.1s-.9-2.1-2.1-2.1zm0-8.3h-16.7c-1.2 0-2.1.9-2.1 2.1 0 1.2.9 2.1 2.1 2.1H4.3c1.2 0 2.1-.9 2.1-2.1 0-1.2-.9-2.1-2.1-2.1zm0-8.3h-16.7c-1.2 0-2.1.9-2.1 2.1 0 1.1.9 2.1 2.1 2.1H4.3c1.2 0 2.1-.9 2.1-2.1 0-1.2-.9-2.1-2.1-2.1zm-16.6-4.2H-4c1.2 0 2.1-.9 2.1-2.1s-.9-2.1-2.1-2.1h-8.3c-1.2 0-2.1.9-2.1 2.1s.9 2.1 2.1 2.1z"/></svg>