<svg class="svg" xmlns="http://www.w3.org/2000/svg" viewBox="-82 84 50 50" enable-background="new -82 84 50 50"><path d="M-33.4 89.7c-2 1.2-4.2 2-6.5 2.5-1.9-2-4.5-3.2-7.5-3.2-5.7 0-10.3 4.5-10.3 10.1 0 .8.1 1.6.3 2.3-8.5-.4-16.1-4.4-21.1-10.5-.9 1.5-1.4 3.2-1.4 5.1 0 3.5 1.8 6.6 4.6 8.4-1.7-.1-3.3-.5-4.6-1.3v.1c0 4.9 3.5 9 8.2 9.9-.9.2-1.8.4-2.7.4-.7 0-1.3-.1-1.9-.2 1.3 4 5.1 6.9 9.6 7-3.5 2.7-7.9 4.3-12.7 4.3-.8 0-1.6 0-2.4-.1 4.5 2.9 9.9 4.5 15.7 4.5 18.9 0 29.2-15.4 29.2-28.7V99c2-1.4 3.7-3.2 5.1-5.2-1.8.8-3.8 1.3-5.9 1.6 1.9-1.3 3.6-3.3 4.3-5.7z"/></svg>