<svg class="svg" xmlns="http://www.w3.org/2000/svg" viewBox="-82 84 50 50" enable-background="new -82 84 50 50"><path d="M-45.5 116.5c-.4 0-.7.1-.9.3-.2.2-.3.5-.3 1v1.1h2.3v-1.1c0-.5-.1-.8-.3-1-.1-.2-.4-.3-.8-.3zm-7 .3c-.2 0-.3 0-.5.1s-.3.2-.5.3v6.2c.2.2.4.3.5.4.2.1.4.1.5.1.3 0 .5-.1.6-.2.1-.1.2-.4.2-.7v-5.1c0-.3-.1-.6-.2-.8 0-.3-.3-.3-.6-.3zm9-9.2h-27c-4.3 0-7.8 4-7.8 8.4v6.4c0 4.4 3.5 7.9 7.8 7.9h27c4.3 0 7.8-3.6 7.8-7.9V116c-.1-4.4-3.5-8.4-7.8-8.4zm-21.3 5.4h-2.5v12.7h-2.4V113h-2.5v-2.2h7.4v2.2zm7.1 12.7h-2.1v-1.2c-.4.4-.8.8-1.2 1-.4.2-.8.4-1.3.4s-.9-.2-1.1-.5c-.2-.3-.4-.8-.4-1.5v-9.2h2.1v8.4c0 .3 0 .4.1.6.1.1.2.2.4.2s.4-.1.6-.2c.2-.2.5-.4.7-.6v-8.4h2.1v11zm7.8-2.3c0 .8-.2 1.4-.5 1.8-.3.4-.8.6-1.5.6-.4 0-.8-.1-1.1-.2-.3-.2-.6-.4-.9-.7v.8h-2.2v-14.9h2.2v4.8c.3-.3.6-.6.9-.8.3-.2.7-.3 1-.3.7 0 1.2.2 1.6.7.4.5.5 1.2.5 2.1v6.1zm7.4-2.9h-4.1v2.1c0 .6.1 1 .2 1.2.1.2.4.3.7.3.4 0 .6-.1.7-.3.1-.2.2-.6.2-1.3v-.5h2.2v.6c0 1.1-.3 2-.8 2.5-.5.6-1.3.8-2.4.8-1 0-1.7-.3-2.3-.9-.6-.6-.8-1.4-.8-2.5v-4.9c0-1 .3-1.7.9-2.3.6-.6 1.4-.9 2.4-.9s1.7.3 2.3.8c.5.6.8 1.4.8 2.4v2.9zm-27.7-32.7l3.2 9.9v6.5h2.8v-6.8l3.1-9.6h-2.7l-1.7 6.5h-.2l-1.8-6.5zm10.3 4.8c-.6.6-1 1.3-1 2.2v6.3c0 1 .3 1.8.9 2.5.6.6 1.5.9 2.5.9 1.1 0 2-.3 2.6-.9.6-.6.9-1.4.9-2.4v-6.3c0-.9-.3-1.7-1-2.3-.6-.6-1.5-.9-2.5-.9-.9.1-1.7.3-2.4.9zm3.6 2.1v6.6c0 .3-.1.6-.3.8-.2.2-.5.3-.8.3-.3 0-.6-.1-.7-.3-.2-.2-.3-.4-.3-.8v-6.6c0-.3.1-.5.3-.6.2-.2.4-.2.7-.2.3 0 .6.1.8.2.2.2.3.4.3.6zm11.3 9.5V92.1h-2.4v9.2c-.2.3-.5.5-.7.7-.3.2-.5.3-.7.3-.2 0-.4-.1-.5-.2-.1-.1-.2-.3-.2-.6v-9.3h-2.4v10.1c0 .7.1 1.3.4 1.6.3.4.7.5 1.3.5.5 0 .9-.1 1.4-.4.5-.3 1-.6 1.4-1.1v1.3h2.4z"/></svg>